<svg width="26" height="26" viewBox="0 0 26 26" fill="none" xmlns="http://www.w3.org/2000/svg">
<path fill-rule="evenodd" clip-rule="evenodd" d="M11.646 18.732L7.8131 15.0115C7.24009 14.4553 7.23326 13.5377 7.79793 12.9731C8.34618 12.4248 9.23135 12.413 9.79404 12.9464L11.646 14.702L16.7546 9.46644C17.3073 8.89996 18.2164 8.89437 18.776 9.45403C19.3271 10.0051 19.3314 10.8972 18.7857 11.4535L11.646 18.732ZM13 0C10.4288 0 7.91543 0.762429 5.77759 2.19089C3.63975 3.61935 1.97351 5.64968 0.989572 8.02512C0.0056327 10.4006 -0.251811 13.0144 0.249797 15.5362C0.751405 18.0579 1.98954 20.3743 3.80762 22.1924C5.6257 24.0105 7.94208 25.2486 10.4638 25.7502C12.9856 26.2518 15.5995 25.9944 17.9749 25.0104C20.3503 24.0265 22.3807 22.3603 23.8091 20.2224C25.2376 18.0846 26 15.5712 26 13C26 9.55219 24.6304 6.24559 22.1924 3.80762C19.7544 1.36964 16.4478 0 13 0Z" fill="#FBC75A"/>
</svg>
