<svg width="16" height="26" viewBox="0 0 16 26" fill="none" xmlns="http://www.w3.org/2000/svg">
<path d="M4.06066 6.93739C3.47487 6.3516 2.52513 6.3516 1.93934 6.93739C1.35355 7.52317 1.35355 8.47292 1.93934 9.05871L4.06066 6.93739ZM11.9395 19.0589C12.5253 19.6447 13.4751 19.6447 14.0609 19.0589C14.6467 18.4731 14.6467 17.5234 14.0609 16.9376L11.9395 19.0589ZM1.93934 9.05871L11.9395 19.0589L14.0609 16.9376L4.06066 6.93739L1.93934 9.05871Z" fill="black"/>
<path d="M1.93934 16.9413C1.35355 17.5271 1.35355 18.4768 1.93934 19.0626C2.52513 19.6484 3.47487 19.6484 4.06066 19.0626L1.93934 16.9413ZM14.0609 9.0624C14.6467 8.47662 14.6467 7.52687 14.0609 6.94108C13.4751 6.3553 12.5253 6.3553 11.9395 6.94108L14.0609 9.0624ZM4.06066 19.0626L14.0609 9.0624L11.9395 6.94108L1.93934 16.9413L4.06066 19.0626Z" fill="black"/>
</svg>
