<svg width="130" height="80" viewBox="0 0 130 80" fill="none" xmlns="http://www.w3.org/2000/svg">
<path d="M123.887 20.503L114.949 31.431L106.082 20.503H99.9708V29.2107C99.9002 28.9678 99.7942 28.7597 99.6882 28.5168C98.9464 26.8169 97.8866 25.2558 96.4382 23.9375C95.0251 22.6539 93.4355 21.6825 91.6692 21.058C89.9029 20.4336 87.8893 20.0867 85.6991 20.0867C83.5088 20.0867 81.5306 20.3989 79.7643 21.0234C77.998 21.6478 76.4083 22.6192 74.9952 23.9028C73.5469 25.2558 72.4871 26.7822 71.7452 28.4821C71.5686 28.8637 71.4273 29.28 71.3213 29.6964C71.1447 29.1066 70.8974 28.5515 70.6148 27.9964C69.6963 26.1925 68.3539 24.5966 66.5876 23.313C65.2099 22.307 63.7262 21.5784 62.0659 21.1274C60.4409 20.6764 58.1447 20.4683 55.1773 20.4683H44.7914V47.6321H55.1773C58.0034 47.6321 60.1229 47.4587 61.5713 47.1464C63.0197 46.8342 64.3267 46.3138 65.4925 45.5506C67.5767 44.2323 69.2017 42.5671 70.2969 40.5896C70.6854 39.8611 71.0034 39.1326 71.286 38.3694C71.4273 38.7857 71.5686 39.202 71.7452 39.6183C72.4871 41.3182 73.5469 42.8446 74.9952 44.1629C76.4083 45.4812 77.998 46.4526 79.7643 47.1117C81.5306 47.7709 83.5088 48.0831 85.6637 48.0831C87.8539 48.0831 89.8322 47.7709 91.5985 47.1117C93.4002 46.4526 94.9898 45.4812 96.4029 44.1976C97.8159 42.8793 98.911 41.3529 99.6529 39.653C99.7589 39.4101 99.8295 39.202 99.9355 38.9591V47.6321H106.789V30.8412L114.949 40.7978L123.18 30.8412V47.6668H129.998V20.503H123.887ZM62.6664 39.9305C61.1827 41.4222 59.2751 42.1855 56.9083 42.1855H51.7506V25.9843H56.9083C59.2398 25.9843 61.1827 26.7475 62.6664 28.2393C64.1501 29.731 64.892 31.6738 64.892 34.0675C64.892 36.4613 64.1501 38.404 62.6664 39.9305ZM91.4219 40.104C89.9382 41.6651 88.0306 42.4283 85.7344 42.4283C83.4382 42.4283 81.5306 41.6651 80.0469 40.104C78.5632 38.5428 77.8213 36.5654 77.8213 34.1369C77.8213 31.7085 78.5632 29.6964 80.0469 28.1352C81.5306 26.5741 83.4382 25.7762 85.7344 25.7762C88.0306 25.7762 89.9382 26.5741 91.4219 28.1352C92.9056 29.6964 93.6474 31.7085 93.6474 34.1369C93.6474 36.5307 92.9056 38.5428 91.4219 40.104ZM45.6039 6.55679L43.8023 0L17.0957 7.04248L18.8973 13.5993L45.6039 6.55679Z" fill="white"/>
<path d="M39.9892 23.8676C39.9185 23.035 39.8125 22.2371 39.7066 21.4045L39.318 18.9413L38.9294 16.9986L51.2582 10.199L51.7528 9.92141L51.6115 9.40103L49.6332 2.08102L49.4566 1.42188L48.7854 1.59533L45.3588 2.49733L45.712 3.85032L48.4675 3.12178L50.1278 9.22757L37.799 16.0272L37.375 16.2701L37.4457 16.7904L37.8696 19.1842L38.1522 21.5779L38.3289 23.9717C38.3642 24.7696 38.3995 25.5675 38.3995 26.3654C38.3642 27.1633 38.3995 27.9613 38.3642 28.7592C38.2935 29.5571 38.2935 30.355 38.1875 31.1529C38.0816 31.9508 38.0462 32.7487 37.9049 33.5467C37.7636 34.3446 37.693 35.1425 37.5163 35.9057C37.1984 37.4669 36.8452 39.028 36.3859 40.5545C36.1386 41.3177 35.962 42.0809 35.6794 42.8441C35.3968 43.6073 35.1495 44.3706 34.8316 45.0991C34.5136 45.8276 34.231 46.5909 33.8778 47.2847C33.5598 48.0132 33.2066 48.7418 32.8533 49.4356L32.2881 50.5111C32.1115 50.858 31.8995 51.2049 31.6875 51.5518L31.087 52.5926C30.875 52.9395 30.6631 53.2517 30.4511 53.5986L29.8153 54.6047L29.1087 55.5761L28.4022 56.5475L27.6604 57.4841L26.9185 58.4208L26.1413 59.3228C25.8941 59.635 25.6114 59.9126 25.3642 60.2248L24.5517 61.0921C24.2691 61.3697 24.0218 61.6819 23.7392 61.9594L22.8913 62.792C22.6087 63.0696 22.3261 63.3471 22.0082 63.6246L21.0897 64.4225C20.7718 64.6654 20.4892 64.9429 20.1712 65.1858L19.2174 65.9143C18.8995 66.1571 18.5815 66.4 18.2636 66.6428L17.2745 67.3367L16.2853 68.0305L15.2609 68.6897L14.2718 69.3488L13.2473 69.9386L12.2228 70.5283C11.8696 70.7365 11.5163 70.91 11.1631 71.0834C10.4565 71.465 9.75001 71.8119 9.00816 72.1242C8.26631 72.4364 7.55979 72.818 6.81794 73.0955L5.72283 73.5465L5.15762 73.7547C4.98098 73.8241 4.80435 73.8935 4.5924 73.9628L3.49729 74.3445L2.93207 74.5526L2.64946 74.6567L2.36685 74.7608L0 75.4546L1.34239 79.4442L3.70924 78.6463C3.88587 78.5769 4.09783 78.5075 4.30979 78.4381L4.91033 78.1953L6.14675 77.7096C6.3587 77.6402 6.57066 77.5708 6.74729 77.4667L7.34784 77.2239L8.5136 76.7035C9.29077 76.3566 10.0679 75.975 10.8451 75.5934C11.6223 75.2118 12.3641 74.7954 13.106 74.3792C13.4946 74.171 13.8478 73.9628 14.2364 73.7547L15.3315 73.0609L16.4267 72.367L17.4864 71.6385L18.5462 70.91L19.5707 70.1467L20.5245 69.3835C20.8424 69.106 21.1604 68.8284 21.5136 68.5509L22.5027 67.7183C22.8207 67.4408 23.1386 67.1285 23.4566 66.851L24.375 65.9837C24.693 65.6715 24.9756 65.3939 25.2582 65.0817L26.1413 64.1797C26.4239 63.8675 26.7066 63.5552 26.9892 63.243L27.837 62.3063C28.1196 61.9941 28.3669 61.6472 28.6495 61.335L29.4267 60.3636L30.1685 59.3575L30.9104 58.3168L31.6169 57.276L32.3234 56.2352L32.9593 55.1598C33.1712 54.8129 33.3832 54.4312 33.5951 54.0843L34.1957 52.9742C34.3723 52.5926 34.5843 52.2457 34.7609 51.864L35.2908 50.7192C35.6794 49.956 35.9973 49.1928 36.3153 48.4295C36.6685 47.6663 36.9158 46.8684 37.1984 46.0705C37.5163 45.3073 37.7283 44.4746 37.9756 43.6767C38.2582 42.8788 38.4348 42.0809 38.6468 41.2483C39.0707 39.6178 39.3886 37.9872 39.6359 36.3567C39.7772 35.5241 39.8479 34.6915 39.9539 33.8936C40.0598 33.061 40.0952 32.2284 40.1658 31.3958C40.2011 30.5632 40.2011 29.7305 40.2365 28.8979C40.2365 28.0653 40.2011 27.2327 40.2011 26.4001C40.1305 25.5328 40.0598 24.7002 39.9892 23.8676Z" fill="black"/>
</svg>
