<svg width="42" height="42" viewBox="0 0 42 42" fill="none" xmlns="http://www.w3.org/2000/svg">
<rect width="42" height="42" rx="21" fill="black" fill-opacity="0.05"/>
<g clip-path="url(#clip0_3501_8182)">
<path d="M14.5 19.5C13.6716 19.5 13 20.1716 13 21C13 21.8284 13.6716 22.5 14.5 22.5V19.5ZM27.5 22.5C28.3284 22.5 29 21.8284 29 21C29 20.1716 28.3284 19.5 27.5 19.5V22.5ZM14.5 22.5H27.5V19.5H14.5V22.5Z" fill="black"/>
<path d="M19.5 27.5C19.5 28.3284 20.1716 29 21 29C21.8284 29 22.5 28.3284 22.5 27.5H19.5ZM22.5 14.5C22.5 13.6716 21.8284 13 21 13C20.1716 13 19.5 13.6716 19.5 14.5H22.5ZM22.5 27.5V14.5H19.5V27.5H22.5Z" fill="black"/>
</g>
<defs>
<clipPath id="clip0_3501_8182">
<rect width="16" height="16" fill="white" transform="translate(13 13)"/>
</clipPath>
</defs>
</svg>
