<svg width="16" height="16" viewBox="0 0 16 16" fill="none" xmlns="http://www.w3.org/2000/svg">
<g clip-path="url(#clip0_3501_5123)">
<path d="M14.5 9.5C15.3284 9.5 16 8.82843 16 8C16 7.17157 15.3284 6.5 14.5 6.5L14.5 9.5ZM1.5 6.5C0.671573 6.5 7.24234e-08 7.17157 0 8C-7.24234e-08 8.82843 0.671573 9.5 1.5 9.5L1.5 6.5ZM14.5 6.5L1.5 6.5L1.5 9.5L14.5 9.5L14.5 6.5Z" fill="black"/>
<path d="M9.5 1.5C9.5 0.671573 8.82843 7.24234e-08 8 0C7.17157 -7.24234e-08 6.5 0.671573 6.5 1.5L9.5 1.5ZM6.5 14.5C6.5 15.3284 7.17157 16 8 16C8.82843 16 9.5 15.3284 9.5 14.5L6.5 14.5ZM6.5 1.5L6.5 14.5L9.5 14.5L9.5 1.5L6.5 1.5Z" fill="black"/>
</g>
<defs>
<clipPath id="clip0_3501_5123">
<rect width="16" height="16" fill="white" transform="translate(16 16) rotate(-180)"/>
</clipPath>
</defs>
</svg>
