<svg width="24" height="24" viewBox="0 0 24 24" fill="none" xmlns="http://www.w3.org/2000/svg">
<path fill-rule="evenodd" clip-rule="evenodd" d="M6 0C2.68629 0 0 2.68629 0 6V18C0 21.3137 2.68629 24 6 24H18C21.3137 24 24 21.3137 24 18V6C24 2.68629 21.3137 0 18 0H6ZM12 5.25C12.8284 5.25 13.5 5.92157 13.5 6.75V10.5H17.25C18.0784 10.5 18.75 11.1716 18.75 12C18.75 12.8284 18.0784 13.5 17.25 13.5H13.5V17.25C13.5 18.0784 12.8284 18.75 12 18.75C11.1716 18.75 10.5 18.0784 10.5 17.25V13.5H6.75C5.92157 13.5 5.25 12.8284 5.25 12C5.25 11.1716 5.92157 10.5 6.75 10.5H10.5V6.75C10.5 5.92157 11.1716 5.25 12 5.25Z" fill="black"/>
</svg>
