<svg width="80" height="19" viewBox="0 0 80 19" fill="none" xmlns="http://www.w3.org/2000/svg">
<path d="M73.4709 18.6315C77.077 18.6315 80.0004 15.6499 80.0004 11.972C80.0004 8.29406 77.077 5.3125 73.4709 5.3125C69.8648 5.3125 66.9414 8.29406 66.9414 11.972C66.9414 15.6499 69.8648 18.6315 73.4709 18.6315Z" fill="white" fill-opacity="0.4"/>
<path d="M52.8291 5.3386C53.3417 3.68749 54.8797 2.47667 56.6605 2.47667H64.1613C64.8358 2.47667 65.3754 1.9263 65.3754 1.23834C65.3754 0.550372 64.8358 0 64.1613 0H56.6605C53.0989 0 50.2119 2.94449 50.2119 6.57694V7.81528H62.7582C62.2456 9.52143 60.6807 10.7598 58.9269 10.7598H51.4531C50.7785 10.7598 50.2389 11.3101 50.2389 11.9981C50.2389 12.6861 50.7785 13.2364 51.4531 13.2364H58.9269C62.4884 13.2364 65.3754 10.2369 65.3754 6.57694V5.3386H52.8291Z" fill="white" fill-opacity="0.4"/>
<path d="M42.171 0H39.9316C36.37 0 33.4561 2.94449 33.4561 6.57694V12.0256C33.4561 12.7136 33.9957 13.264 34.6702 13.264C35.3447 13.264 35.8844 12.7136 35.8844 12.0256V7.81527H46.1913V12.0256C46.1913 12.7136 46.7309 13.264 47.4054 13.264C48.08 13.264 48.6196 12.7136 48.6196 12.0256V6.57694C48.6196 2.94449 45.7326 0 42.171 0ZM36.0732 5.3386C36.5859 3.68749 38.1238 2.47667 39.9046 2.47667H42.1441C43.9518 2.47667 45.4628 3.68749 45.9754 5.3386H36.0732Z" fill="white" fill-opacity="0.4"/>
<path d="M31.892 6.57694C31.892 2.94449 29.005 0 25.4435 0H23.204C19.6425 0 16.7285 2.94449 16.7285 6.57694V12.0256C16.7285 12.7136 17.2681 13.264 17.9427 13.264C18.6172 13.264 19.1568 12.7136 19.1568 12.0256V7.81527H23.5008L29.9224 12.9888C30.1383 13.1814 30.4081 13.264 30.6779 13.264C31.0286 13.264 31.3794 13.0988 31.6222 12.7961C32.0269 12.2733 31.946 11.4752 31.4334 11.0625L27.4131 7.81527H31.892V6.57694ZM19.3457 5.3386C19.8584 3.68749 21.3963 2.47667 23.204 2.47667H25.4435C27.2512 2.47667 28.7622 3.68749 29.2748 5.3386H19.3457Z" fill="white" fill-opacity="0.4"/>
<path d="M8.688 0H1.21416C0.539627 0 0 0.550371 0 1.23834C0 1.9263 0.539627 2.47667 1.21416 2.47667H8.688C10.4957 2.47667 12.0067 3.68749 12.5194 5.3386H2.37436H0V12.0256C0 12.7136 0.539627 13.264 1.21416 13.264C1.8887 13.264 2.42832 12.7136 2.42832 12.0256V7.81527H15.1635V6.57694C15.1635 2.94449 12.2495 0 8.688 0Z" fill="white" fill-opacity="0.4"/>
</svg>
