<svg width="24" height="24" viewBox="0 0 24 24" fill="none" xmlns="http://www.w3.org/2000/svg">
<path d="M14.2617 12.0004C14.2617 13.2497 13.249 14.2625 11.9996 14.2625C10.7503 14.2625 9.73755 13.2497 9.73755 12.0004C9.73755 10.7511 10.7503 9.73828 11.9996 9.73828C13.249 9.73828 14.2617 10.7511 14.2617 12.0004Z" fill="black"/>
<path fill-rule="evenodd" clip-rule="evenodd" d="M13.5445 0.398778C12.584 -0.132926 11.4175 -0.132926 10.457 0.398778L2.39374 4.86238C1.37946 5.42386 0.75 6.49177 0.75 7.6511V16.3497C0.75 17.5091 1.37946 18.577 2.39374 19.1385L10.457 23.6021C11.4175 24.1338 12.584 24.1338 13.5445 23.6021L21.6078 19.1385C22.6221 18.577 23.2515 17.5091 23.2515 16.3497V7.6511C23.2515 6.49177 22.6221 5.42386 21.6078 4.86238L13.5445 0.398778ZM17.4492 12.0004C17.4492 15.0101 15.0094 17.45 11.9996 17.45C8.98992 17.45 6.55005 15.0101 6.55005 12.0004C6.55005 8.99065 8.98992 6.55078 11.9996 6.55078C15.0094 6.55078 17.4492 8.99065 17.4492 12.0004Z" fill="black"/>
</svg>
