<svg width="24" height="24" viewBox="0 0 24 24" fill="none" xmlns="http://www.w3.org/2000/svg">
<path d="M2.625 9C2.625 5.47919 5.47918 2.625 9 2.625H16.5C17.1213 2.625 17.625 2.12132 17.625 1.5C17.625 0.87868 17.1213 0.375 16.5 0.375H9C4.23654 0.375 0.375 4.23654 0.375 9V18C0.375 18.6213 0.87868 19.125 1.5 19.125C2.12132 19.125 2.625 18.6213 2.625 18V9Z" fill="black"/>
<path d="M9 4.5C6.51472 4.5 4.5 6.51472 4.5 9V19.5C4.5 21.9853 6.51472 24 9 24H19.5C21.9853 24 24 21.9853 24 19.5V9C24 6.51472 21.9853 4.5 19.5 4.5H9Z" fill="black"/>
</svg>
